<svg id="Capa_1" data-name="Capa 1" xmlns="http://www.w3.org/2000/svg" viewBox="0 0 643 189"><title>logo-ufind-redimensionado-2</title><path d="M6916.8,7227.5c7.3,8.6,17.3,12.9,29.8,12.9s22.5-4.3,29.8-12.9,11-20.2,11-34.9v-88.7h27.1v89.9q0,34.6-19,53.3t-48.9,18.7q-29.9,0-48.9-18.7t-19-53.3v-89.9h27.1v88.7C6905.8,7207.3,6909.4,7218.9,6916.8,7227.5Z" transform="translate(-6878.7 -7077.1)" style="fill:#001233"/><path d="M7084.5,7129.1v44h71.1v25h-71.1v66.1h-27.1V7103.9h106.9l-.2,25.2Z" transform="translate(-6878.7 -7077.1)" style="fill:#0466c8"/><path d="M7194.3,7117.9a16.2,16.2,0,0,1,0-23,16,16,0,0,1,11.5-4.8,16.3,16.3,0,0,1,0,32.6A16,16,0,0,1,7194.3,7117.9Zm24.1,146.3h-25.7v-122h25.7Z" transform="translate(-6878.7 -7077.1)" style="fill:#0466c8"/><path d="M7281.7,7198.1v66.1H7256v-122h25.7v22.2a46.7,46.7,0,0,1,40.6-24.1c13.8,0,24.9,4.3,33.4,12.7s12.7,20.5,12.7,36.4v74.8h-25.6v-67c0-22.4-9.4-33.7-28-33.7a34.1,34.1,0,0,0-23.2,8.8Q7281.7,7181.2,7281.7,7198.1Z" transform="translate(-6878.7 -7077.1)" style="fill:#0466c8"/><path d="M7414.1,7248.6q-17.2-17.4-17.2-45.9c0-18.9,5.9-34.1,17.7-45.4a58.5,58.5,0,0,1,42-17q24.4,0,39.4,20.7v-67h25.7v170.2H7496v-18.3q-14.2,20.1-41.5,20.1C7439,7266,7425.6,7260.2,7414.1,7248.6Zm8.5-44.8c0,11.7,3.7,21.2,11.2,28.5a36.3,36.3,0,0,0,26.4,11,34.1,34.1,0,0,0,25.7-11.1q10.5-11.1,10.5-28.5c0-11.7-3.5-21.4-10.5-29.2a33.5,33.5,0,0,0-25.9-11.7q-15.5,0-26.4,11.7C7426.3,7182.3,7422.6,7192.1,7422.6,7203.8Z" transform="translate(-6878.7 -7077.1)" style="fill:#0466c8"/><circle cx="326.8" cy="29.3" r="25.8" style="fill:none;stroke:#001233;stroke-miterlimit:10;stroke-width:7px"/><path d="M7223.9,7086.3" transform="translate(-6878.7 -7077.1)" style="stroke:#000;stroke-miterlimit:10;stroke-width:0.75px"/><path d="M7191.6,7126.4" transform="translate(-6878.7 -7077.1)" style="stroke:#000;stroke-miterlimit:10;stroke-width:0.75px"/><line x1="344.5" y1="47" x2="366" y2="68.3" style="fill:#001233;stroke:#001233;stroke-miterlimit:10;stroke-width:7px"/><circle cx="435.3" cy="126.9" r="13.6" style="fill:#001233;stroke:#001233;stroke-miterlimit:10"/><circle cx="578.9" cy="126.9" r="13.6" style="fill:#001233;stroke:#001233;stroke-miterlimit:10"/><path d="M7373.4,7244.7c2.1,2.4,4.2,5.1,6.4,8.1a107.4,107.4,0,0,1,6.5,10.4c1.7-3.2,3.8-6.7,6.1-10.3s4.1-5.8,6.1-8.2c-3.9.3-8,.4-12.4.4S7377.4,7245,7373.4,7244.7Z" transform="translate(-6878.7 -7077.1)" style="fill:#001233;stroke:#001233;stroke-miterlimit:10"/></svg>